# xmcd
#
# Track frame offsets:
#	150
#	14715
#	31602
#	49782
#	62485
#	78123
#	90955
#	106509
#	118737
#	129917
#	144224
#	161053
#	177347
#	195597
#
# Disc length: 2842 seconds
#
# Revision: 2
# Processed by: cddbd v1.5.1PL0 Copyright (c) Steve Scherf et al.
# Submitted via: dBpowerAMP V4.0
#
DISCID=a10b180e
DTITLE=Zezety and Ademyr - A Dança do Peão
DYEAR=1900
DGENRE=Sertaneja
TTITLE0=A Dança do Peão
TTITLE1=Perereca
TTITLE2=Saudade Country
TTITLE3=Deixe a Paina Voar
TTITLE4=Coração Abriu Cancela
TTITLE5=Deixe o Touro Pular
TTITLE6=Minha Loucura
TTITLE7=No Embalo do Rodeio
TTITLE8=Já Tô de Saco Cheio
TTITLE9=Dona do Meu Coração
TTITLE10=Sol de Verão
TTITLE11=Cowboy Apaixonado
TTITLE12=Mina Luz
TTITLE13=Meu Sertão
EXTD=
EXTT0=
EXTT1=
EXTT2=
EXTT3=
EXTT4=
EXTT5=
EXTT6=
EXTT7=
EXTT8=
EXTT9=
EXTT10=
EXTT11=
EXTT12=
EXTT13=
PLAYORDER=
